<svg height='300px' width='300px'  fill="#000000" xmlns="http://www.w3.org/2000/svg" data-name="Layer 1" viewBox="0 0 100 100" x="0px" y="0px"><title>30 icons</title><path d="M97.46,46.1a2.32,2.32,0,0,0-3.19-1.86c-.75.22-1.44.63-2.18.9a23.38,23.38,0,0,1-3.09,1c-1.65.37-3.33.58-5,.87-1,.17-1.92.36-2.93.55a4.64,4.64,0,0,1-.62-1.21c-.21-1.19-.32-2.39-.47-3.64a12.14,12.14,0,0,1,4-.81,9.36,9.36,0,0,0,1.75-.18c.63-.13,1-.55.89-1a8.62,8.62,0,0,0-.78-2.11,1.15,1.15,0,0,0-1.69-.39,6,6,0,0,0-1.19.94,11.14,11.14,0,0,1-3.31,2l-2-5.61c.12-.44.26-.92.43-1.52,1.74-.91,3.54-1.9,5.37-2.81a25,25,0,0,1,5.23-1.58,7.9,7.9,0,0,0,2.07-.89A1.43,1.43,0,0,0,91.4,27a7.39,7.39,0,0,0-2.06-3.43,2.1,2.1,0,0,0-3-.09,7.89,7.89,0,0,0-1.56,1.75,14.64,14.64,0,0,1-3.39,3.5c-1.3,1-2.56,2-3.85,3-.19.16-.39.3-.55.42-.52-.22-1-.4-1.44-.6a1.09,1.09,0,0,1-.41-.27c-.65-.84-1.28-1.7-2-2.65.13-.09.28-.18.41-.29a21.16,21.16,0,0,1,6.19-3.87,6.35,6.35,0,0,0,1.65-1,1.12,1.12,0,0,0,.35-1.44,5.11,5.11,0,0,0-1.77-2.11,1.65,1.65,0,0,0-2.28.28,4.85,4.85,0,0,0-.85,1.25A12.55,12.55,0,0,1,74.27,25c-.64.64-1.23,1.32-1.85,2-.14.15-.31.28-.43.4-1-.89-1.92-1.76-2.88-2.57a2,2,0,0,1-.79-1.27l1.49-2.32a24.67,24.67,0,0,1,5.87-6.68,7.11,7.11,0,0,0,1.15-1.11,4,4,0,0,0,.66-1.07,1.45,1.45,0,0,0-.23-1.66A7.41,7.41,0,0,0,73.8,8.55,2.16,2.16,0,0,0,71,10a8.2,8.2,0,0,0-.49,2,14.44,14.44,0,0,1-1.34,4.68c-.7,1.44-1.34,2.91-2,4.37-.21.45-.4.92-.58,1.33a.79.79,0,0,1-.15.05,2,2,0,0,1-1.26-.34c-1.41-.75-2.84-1.46-4.3-2.21a3.42,3.42,0,0,1,.11-.35,15.12,15.12,0,0,1,2.63-4.21,6.61,6.61,0,0,0,1-1.52,1,1,0,0,0-.49-1.5,8.14,8.14,0,0,0-2-.81,1.37,1.37,0,0,0-1.8,1.19,7.33,7.33,0,0,0-.12,1.75,16.8,16.8,0,0,1-1,4.84l-6.41-1.38L53,17.7c-.44-.42-.89-.83-1.49-1.38.06-1.32.16-2.92.19-4.52a14.9,14.9,0,0,1,.91-5,9,9,0,0,0,.52-2,2.24,2.24,0,0,0-2-2.71,8,8,0,0,0-3.34.2,1.69,1.69,0,0,0-1.52,2.13,8.29,8.29,0,0,0,.64,2.25,22.06,22.06,0,0,1,1.87,6.54c.14,1.22.26,2.45.39,3.59l-1.11.92-5.5.73c-.1-1.06-.18-2.12-.32-3.17a10.19,10.19,0,0,1,.15-3.44,6.45,6.45,0,0,0,.11-1.75,1.58,1.58,0,0,0-1.85-1.63A10.78,10.78,0,0,0,38.3,9a1,1,0,0,0-.72,1.2,4.6,4.6,0,0,0,.32,1.21c.26.56.58,1.09.89,1.63a19.29,19.29,0,0,1,2,5.84c-1.46.57-2.87,1.13-4.28,1.66a2,2,0,0,1-.68,0c-.93-2.64-1.84-5.2-2.75-7.77a11.81,11.81,0,0,1-.67-3.29,14,14,0,0,0-.3-2.59A2.26,2.26,0,0,0,29,5.1a11.68,11.68,0,0,0-2.63,1.29,1.77,1.77,0,0,0-.62,2.86,14.58,14.58,0,0,0,1.57,1.86c.77.86,1.62,1.65,2.32,2.56,1.84,2.37,3.05,5.11,4.56,7.81-1.55,1.49-3.53,2.37-5.1,3.94-.42-1-.82-1.76-1.13-2.6a14.25,14.25,0,0,1-.38-1.72,7.79,7.79,0,0,0-.24-1,1.29,1.29,0,0,0-1.87-.88,5.79,5.79,0,0,0-1.37.82,1.07,1.07,0,0,0-.2,1.79A9.27,9.27,0,0,0,25,22.94a12.71,12.71,0,0,1,2.83,3.41L24,30.77l-1.16.42c-1.55-1.41-3.09-2.81-4.61-4.23a20.1,20.1,0,0,1-3.87-5,9.67,9.67,0,0,0-1.1-1.6,4,4,0,0,0-1-.86,1.47,1.47,0,0,0-1.74.1,8,8,0,0,0-2.38,2.7,2.28,2.28,0,0,0,1.08,3.45,9.87,9.87,0,0,0,2,.78,12.87,12.87,0,0,1,3.44,1.56l7.09,4.57s.06.08.08.1a4.93,4.93,0,0,1-.58,2.84c-.53,1-.9,2.18-1.34,3.27l-.31.75c-1.61-.73-3.14-1.44-4.68-2.13a11.6,11.6,0,0,1-2.91-1.83,6.52,6.52,0,0,0-1.53-1,1.54,1.54,0,0,0-2.18.66,8.64,8.64,0,0,0-.76,2.12,1.3,1.3,0,0,0,1.08,1.77,9.37,9.37,0,0,0,1.75.19,19.68,19.68,0,0,1,2.78.16c1.84.38,3.65.89,5.47,1.36a3,3,0,0,1,.49.19c-.25,1.82-.49,3.54-.72,5.26-.05.34-.07.68-.46.84a2.11,2.11,0,0,1-.25,0c-2.08-.48-4.15-1-6.24-1.44A14.1,14.1,0,0,1,7,44a7.94,7.94,0,0,0-1.68-.76A2.3,2.3,0,0,0,2.09,45a8.46,8.46,0,0,0-.31,3.09,1.69,1.69,0,0,0,1.83,1.86A7.79,7.79,0,0,0,6,49.66c3.83-1.13,7.69-.68,11.56-.37a8.83,8.83,0,0,1,.81,1.86c.25,1.35.35,2.72.52,4.16a20.93,20.93,0,0,1-5.42.4c-.56-.07-1.11-.19-1.67-.25-1.71-.17-2.17.33-1.89,2,.31,1.87,1.32,2.36,2.89,1.29,1.95-1.33,4.27-1.47,6.34-2.33.58,1.69,1.13,3.28,1.66,4.84l-.64,1.51c-2.16.61-4.3,1.2-6.42,1.82a13.93,13.93,0,0,1-4.58.58A7.56,7.56,0,0,0,7,65.4a2.19,2.19,0,0,0-1.76,2.72,8.07,8.07,0,0,0,1.16,3,1.81,1.81,0,0,0,2.83.79,8.28,8.28,0,0,0,1.83-1.34c2.84-2.79,6.45-4.22,9.8-5.72l2.5,1.1,2,2.79L25,69c-1.31,1.06-2.64,2.11-3.94,3.18a10.29,10.29,0,0,1-2.73,1.66,7.36,7.36,0,0,0-1.06.51c-1.53.88-1.71,2.06-.51,3.37a7,7,0,0,0,1.08,1A1.32,1.32,0,0,0,20,78.45a8.15,8.15,0,0,0,1-1.73C22.25,74,24.36,72,26.35,69.8l.29.25c1.26,1.16,2.52,2.33,3.8,3.46a1.64,1.64,0,0,1,.57,1.2,3.68,3.68,0,0,0-.41.31c-1.68,1.54-3.37,3.07-5,4.64a14.33,14.33,0,0,1-3.78,2.63A8.92,8.92,0,0,0,20,83.4a2.23,2.23,0,0,0-.4,3.41A7.91,7.91,0,0,0,22,88.89a1.79,1.79,0,0,0,2.76-.55,7.83,7.83,0,0,0,1-2c1.32-4.08,4.16-7.16,6.67-10.38a6.36,6.36,0,0,1,3.41.93c.69.4,1.46.67,2.24,1a4,4,0,0,1-.2.41,12.87,12.87,0,0,1-2.42,3.12,5.74,5.74,0,0,0-1,1.25.8.8,0,0,0,.2,1.2,7.29,7.29,0,0,0,1.76.94,1.27,1.27,0,0,0,1.78-1,4.39,4.39,0,0,0,.15-1.08,12.84,12.84,0,0,1,1.19-4.27l3.1.85,1.44,1.92c-.52,1.48-1.07,3-1.58,4.55a14.76,14.76,0,0,1-2.4,4.62A6.87,6.87,0,0,0,39.2,92a2.28,2.28,0,0,0,1.31,3.37,8.15,8.15,0,0,0,3.37.67,1.48,1.48,0,0,0,1.63-1.18,6.84,6.84,0,0,0,.22-1.91c0-.84-.17-1.68-.24-2.52a32.69,32.69,0,0,1,1.06-9.34L48,79.92h4.67c0,1.23,0,2.43,0,3.64a12.09,12.09,0,0,1-.51,3.91A5.59,5.59,0,0,0,51.89,89a1.64,1.64,0,0,0,1.74,1.85,7.38,7.38,0,0,0,1.75-.18A1.28,1.28,0,0,0,56.53,89a8.73,8.73,0,0,0-.6-1.92,17.08,17.08,0,0,1-1.26-4.18c-.17-1.08-.29-2.16-.43-3.19l5-1.24,1.59.49c.45,1.38,1,2.78,1.36,4.21s.77,3,1,4.51a23.92,23.92,0,0,1,.14,2.94,6.89,6.89,0,0,0,.47,2.73,1.58,1.58,0,0,0,1.72,1.08A8.47,8.47,0,0,0,69,93.27a2.28,2.28,0,0,0,.85-3.46,10.63,10.63,0,0,0-1.37-1.7A13.5,13.5,0,0,1,66,84.61c-1-2.06-2.11-4.1-3.17-6.15-.07-.15-.14-.3-.18-.4a3.86,3.86,0,0,1,2.06-2.14,19.35,19.35,0,0,0,2.37-1.46c.8-.55,1.57-1.16,2.39-1.77a14.36,14.36,0,0,1,2.78,4.2,7.2,7.2,0,0,0,.78,1.48.91.91,0,0,0,1.33.32A7.39,7.39,0,0,0,76,77.29a1.17,1.17,0,0,0-.24-1.78,5.83,5.83,0,0,0-1.3-.76c-1.53-.68-2.55-2-3.77-3l4.15-4.75,1.94-.52,2.34,1.81a23.79,23.79,0,0,1,6.15,6.42,3.68,3.68,0,0,0,.57.73,9.29,9.29,0,0,0,1.41,1.18A1.44,1.44,0,0,0,89,76.5a8.27,8.27,0,0,0,2.23-2.94A2.27,2.27,0,0,0,90,70.3a18.62,18.62,0,0,0-2.08-.66,19.57,19.57,0,0,1-2.94-1c-2.47-1.27-4.88-2.66-7.3-4-.11-.65-.22-1.28-.3-1.78l2.19-5.68c1.48.86,3,1.75,4.49,2.6A11.55,11.55,0,0,1,86.87,62a6.27,6.27,0,0,0,1.28,1.08,1.63,1.63,0,0,0,2.48-.53,9.78,9.78,0,0,0,.92-2.24A1.06,1.06,0,0,0,90.91,59a6,6,0,0,0-1.51-.46c-.75-.14-1.51-.16-2.26-.27-2.59-.4-4.91-1.56-7.34-2.5,0-.18,0-.31.07-.45.18-1.19.43-2.38.52-3.58a3,3,0,0,1,.92-2.15c2.08,0,4.22,0,6.35,0a17.12,17.12,0,0,1,4.65.75,17.86,17.86,0,0,0,1.87.51,7.28,7.28,0,0,0,1.92.09,1.44,1.44,0,0,0,1.44-1.39A8.09,8.09,0,0,0,97.46,46.1ZM35,55a2,2,0,1,1,2-2A2,2,0,0,1,35,55Zm2.5-10A4.5,4.5,0,1,1,42,40.5,4.49,4.49,0,0,1,37.5,45ZM46,25a2,2,0,1,1-2,2A2,2,0,0,1,46,25Zm2.5,47A4.5,4.5,0,1,1,53,67.5,4.49,4.49,0,0,1,48.5,72Zm11-18A4.5,4.5,0,1,1,64,49.5,4.49,4.49,0,0,1,59.5,54ZM73,45a2,2,0,1,1,2-2A2,2,0,0,1,73,45Z"></path></svg>