<svg height='300px' width='300px'  fill="#000000" xmlns="http://www.w3.org/2000/svg" xmlns:xlink="http://www.w3.org/1999/xlink" version="1.1" x="0px" y="0px" viewBox="0 0 10 10" enable-background="new 0 0 10 10" xml:space="preserve"><g><path d="M9.021,4.472c-0.143,0-0.275,0.056-0.374,0.157L8.569,4.6C8.537,4.591,8.504,4.58,8.47,4.57   C8.398,4.548,8.324,4.525,8.248,4.509L8.151,4.486c-0.08-0.019-0.16-0.037-0.239-0.045c-0.004,0-0.008,0-0.012-0.001   C7.873,4.299,7.835,4.158,7.787,4.021c0.007-0.01,0.015-0.02,0.022-0.028c0.033-0.04,0.061-0.085,0.089-0.13   c0.014-0.021,0.026-0.042,0.043-0.066c0.042-0.07,0.084-0.148,0.123-0.229C8.161,3.563,8.25,3.524,8.315,3.458   c0.15-0.15,0.15-0.394,0-0.545C8.171,2.768,7.919,2.766,7.771,2.914C7.646,3.04,7.625,3.229,7.71,3.377   C7.671,3.425,7.628,3.475,7.586,3.52L7.568,3.535C7.45,3.328,7.309,3.137,7.149,2.972C7.177,2.94,7.207,2.911,7.238,2.88   c0.022-0.022,0.045-0.045,0.066-0.068c0.044-0.044,0.091-0.084,0.137-0.124C7.47,2.665,7.498,2.641,7.519,2.622l0.034-0.027   C7.754,2.73,8.046,2.704,8.218,2.53c0.207-0.206,0.207-0.542,0-0.748c-0.199-0.198-0.547-0.2-0.747,0   c-0.1,0.1-0.154,0.236-0.153,0.376L7.152,2.241C7.085,2.276,7.016,2.313,6.948,2.356c-0.029,0.02-0.061,0.039-0.091,0.058   C6.79,2.456,6.724,2.498,6.661,2.548C6.659,2.55,6.657,2.552,6.654,2.554C6.533,2.472,6.407,2.399,6.278,2.337   C6.277,2.326,6.275,2.313,6.274,2.301C6.27,2.247,6.257,2.192,6.243,2.137L6.229,2.072C6.206,1.974,6.178,1.886,6.154,1.818   c0.064-0.07,0.1-0.159,0.1-0.253c0-0.212-0.173-0.385-0.385-0.385S5.484,1.352,5.484,1.564c0,0.178,0.118,0.326,0.283,0.37   C5.773,1.997,5.778,2.062,5.78,2.127L5.779,2.15C5.552,2.087,5.318,2.052,5.086,2.045C5.083,2.006,5.084,1.966,5.084,1.926   c0-0.035,0-0.07,0-0.104C5.082,1.759,5.088,1.696,5.092,1.635C5.096,1.6,5.098,1.564,5.1,1.539l0.005-0.044   c0.243-0.049,0.423-0.262,0.424-0.517c0-0.292-0.237-0.529-0.528-0.529c-0.291,0-0.527,0.238-0.529,0.529   c0,0.143,0.057,0.275,0.158,0.374L4.6,1.431C4.591,1.463,4.58,1.496,4.57,1.529C4.547,1.602,4.523,1.676,4.508,1.752   C4.502,1.787,4.494,1.821,4.485,1.855C4.467,1.934,4.449,2.012,4.441,2.089c0,0.003,0,0.007-0.001,0.01   C4.3,2.126,4.159,2.165,4.021,2.213C4.018,2.21,4.015,2.208,4.012,2.206l-0.02-0.014C3.951,2.157,3.904,2.127,3.855,2.097   L3.798,2.06C3.727,2.017,3.648,1.974,3.568,1.936C3.564,1.841,3.525,1.751,3.457,1.683C3.313,1.539,3.059,1.539,2.912,1.685   C2.84,1.757,2.799,1.853,2.799,1.956c0,0.103,0.041,0.2,0.113,0.272C3.033,2.349,3.23,2.374,3.377,2.29   c0.051,0.041,0.1,0.085,0.143,0.128l0.016,0.015C3.333,2.548,3.145,2.688,2.971,2.851C2.941,2.825,2.914,2.796,2.885,2.767   C2.861,2.743,2.836,2.718,2.813,2.695c-0.045-0.044-0.086-0.093-0.127-0.14C2.663,2.528,2.641,2.502,2.621,2.481L2.596,2.447   c0.138-0.206,0.115-0.484-0.066-0.666c-0.199-0.199-0.547-0.199-0.748,0c-0.205,0.206-0.205,0.541,0,0.748   c0.1,0.099,0.232,0.153,0.373,0.153c0.001,0,0.002,0,0.004,0L2.24,2.846c0.035,0.068,0.072,0.138,0.115,0.206   C2.375,3.081,2.395,3.11,2.412,3.14c0.043,0.068,0.085,0.136,0.137,0.199c0.002,0.002,0.004,0.004,0.006,0.006   c-0.08,0.117-0.152,0.243-0.217,0.375C2.326,3.723,2.313,3.725,2.301,3.726c-0.054,0.006-0.108,0.019-0.164,0.03L2.07,3.771   C1.986,3.791,1.9,3.817,1.817,3.847C1.746,3.781,1.658,3.746,1.564,3.745C1.352,3.746,1.18,3.92,1.18,4.131   c0,0.213,0.172,0.385,0.386,0.385c0.177,0,0.325-0.119,0.369-0.283c0.062-0.007,0.126-0.012,0.19-0.013L2.15,4.221   c-0.063,0.23-0.099,0.463-0.105,0.693C2.02,4.916,1.994,4.916,1.967,4.916H1.809c-0.059,0-0.117-0.004-0.174-0.009   C1.6,4.904,1.564,4.902,1.539,4.9L1.495,4.896C1.446,4.652,1.233,4.471,0.978,4.471C0.686,4.472,0.449,4.709,0.449,5   s0.236,0.528,0.529,0.528C1.12,5.527,1.255,5.471,1.352,5.371l0.174,0.057c0.073,0.023,0.148,0.047,0.227,0.064L1.85,5.514   c0.08,0.019,0.16,0.037,0.237,0.044L2.1,5.56C2.127,5.7,2.164,5.841,2.213,5.979c-0.008,0.01-0.016,0.02-0.022,0.028   C2.156,6.05,2.125,6.098,2.096,6.146L2.059,6.203C2.008,6.288,1.967,6.368,1.936,6.431C1.84,6.437,1.75,6.476,1.684,6.543   c-0.15,0.149-0.149,0.395,0.002,0.545C1.83,7.233,2.084,7.233,2.229,7.087C2.355,6.961,2.376,6.771,2.29,6.623   c0.039-0.048,0.082-0.098,0.126-0.144l0.017-0.016c0.116,0.204,0.257,0.394,0.418,0.565C2.824,7.059,2.795,7.088,2.766,7.117   c-0.024,0.023-0.049,0.047-0.07,0.07C2.654,7.229,2.61,7.267,2.567,7.304C2.535,7.331,2.505,7.357,2.484,7.378   C2.472,7.387,2.459,7.396,2.447,7.405C2.245,7.271,1.955,7.296,1.781,7.472c-0.206,0.205-0.205,0.54,0,0.746   c0.199,0.201,0.549,0.2,0.748,0.001c0.102-0.103,0.155-0.236,0.154-0.377C2.707,7.831,2.73,7.819,2.759,7.807   c0.03-0.017,0.062-0.033,0.093-0.05c0.066-0.034,0.135-0.07,0.2-0.113c0.03-0.021,0.063-0.04,0.094-0.06   c0.067-0.041,0.132-0.082,0.19-0.13c0.004-0.003,0.006-0.005,0.01-0.008c0.12,0.082,0.246,0.154,0.375,0.216   c0.002,0.012,0.004,0.024,0.005,0.037C3.73,7.75,3.742,7.804,3.755,7.856L3.771,7.93C3.79,8.009,3.814,8.094,3.846,8.183   c-0.064,0.07-0.1,0.158-0.1,0.254c0,0.211,0.172,0.384,0.385,0.385c0.213,0,0.385-0.173,0.385-0.386   c0-0.178-0.119-0.326-0.283-0.369c-0.007-0.063-0.012-0.127-0.014-0.19L4.22,7.85c0.228,0.063,0.46,0.099,0.694,0.105   C4.916,7.992,4.916,8.03,4.916,8.068c0,0.037,0,0.074,0.002,0.108c0,0.063-0.005,0.123-0.01,0.184   C4.904,8.397,4.902,8.435,4.9,8.462L4.896,8.505C4.652,8.554,4.473,8.768,4.473,9.023c0,0.291,0.236,0.527,0.527,0.527   C5.291,9.55,5.527,9.313,5.528,9.022c0-0.141-0.058-0.275-0.157-0.374L5.4,8.57c0.01-0.034,0.02-0.068,0.03-0.103   c0.022-0.071,0.044-0.145,0.062-0.22C5.498,8.214,5.507,8.18,5.515,8.146c0.018-0.079,0.036-0.157,0.044-0.235L5.56,7.9   c0.142-0.027,0.282-0.065,0.419-0.113l0.028,0.021C6.05,7.845,6.099,7.875,6.147,7.905l0.055,0.034   c0.07,0.044,0.148,0.086,0.229,0.125C6.436,8.16,6.475,8.249,6.543,8.317c0.146,0.144,0.402,0.145,0.544-0.002   c0.15-0.149,0.15-0.395,0-0.545C6.967,7.65,6.769,7.626,6.623,7.71C6.575,7.671,6.525,7.628,6.48,7.586L6.464,7.568   c0.205-0.116,0.395-0.257,0.565-0.419c0.029,0.027,0.059,0.056,0.088,0.085c0.023,0.024,0.047,0.048,0.07,0.07   c0.044,0.043,0.084,0.09,0.123,0.137C7.335,7.47,7.359,7.498,7.38,7.52l0.025,0.033C7.267,7.759,7.289,8.037,7.471,8.218   c0.198,0.198,0.547,0.199,0.747,0c0.101-0.1,0.155-0.232,0.155-0.373c0-0.142-0.055-0.274-0.155-0.374   c-0.099-0.1-0.23-0.153-0.372-0.153c-0.001,0-0.002,0-0.003,0L7.807,7.241C7.79,7.211,7.773,7.18,7.757,7.148   c-0.034-0.066-0.07-0.134-0.113-0.2c-0.02-0.029-0.039-0.061-0.058-0.091C7.544,6.79,7.502,6.724,7.454,6.663   C7.451,6.66,7.449,6.658,7.446,6.655c0.083-0.122,0.155-0.248,0.217-0.377c0.012-0.001,0.023-0.003,0.036-0.004   C7.753,6.27,7.809,6.256,7.864,6.243L7.93,6.229c0.086-0.021,0.172-0.046,0.253-0.074c0.07,0.064,0.16,0.1,0.254,0.1   C8.648,6.253,8.82,6.08,8.82,5.87c0.001-0.103-0.039-0.199-0.111-0.272c-0.073-0.073-0.17-0.113-0.272-0.113   c-0.178,0-0.326,0.119-0.371,0.283C8.004,5.774,7.939,5.779,7.876,5.781L7.85,5.78c0.063-0.228,0.098-0.46,0.105-0.694   C7.98,5.084,8.007,5.084,8.033,5.084l0.164-0.001c0.055,0,0.109,0.005,0.163,0.009c0.038,0.003,0.074,0.006,0.102,0.007   l0.043,0.006c0.049,0.243,0.263,0.424,0.519,0.424c0.291,0,0.527-0.237,0.527-0.528S9.314,4.472,9.021,4.472z M3.359,2.047   L3.313,2.091C3.24,2.157,3.123,2.154,3.054,2.086C3.019,2.051,3,2.005,3,1.956s0.019-0.095,0.053-0.129   c0.036-0.036,0.083-0.055,0.133-0.055S3.281,1.79,3.316,1.824c0.041,0.042,0.06,0.1,0.051,0.16L3.359,2.047z M1.748,4.138   C1.744,4.238,1.664,4.316,1.563,4.316c-0.102,0-0.185-0.084-0.185-0.186s0.084-0.186,0.186-0.186c0.074,0,0.123,0.049,0.145,0.078   L1.75,4.077L1.748,4.138z M6.641,7.955l0.049-0.046c0.071-0.066,0.188-0.063,0.257,0.003c0.072,0.072,0.072,0.19-0.001,0.263   c-0.067,0.07-0.19,0.07-0.262,0.001c-0.041-0.041-0.06-0.1-0.052-0.16L6.641,7.955z M8.252,5.862   c0.004-0.1,0.085-0.179,0.185-0.179c0.049,0,0.096,0.02,0.131,0.055c0.034,0.035,0.054,0.081,0.054,0.131   c0,0.102-0.084,0.185-0.186,0.186c-0.075,0-0.123-0.049-0.145-0.078L8.25,5.923L8.252,5.862z M7.912,3.055   c0.074-0.07,0.194-0.07,0.262-0.001c0.073,0.072,0.073,0.19,0,0.263c-0.039,0.04-0.099,0.062-0.158,0.051L7.953,3.359L7.909,3.311   C7.841,3.238,7.842,3.125,7.912,3.055z M5.684,1.564c0-0.102,0.083-0.185,0.186-0.185s0.186,0.083,0.186,0.185   c0,0.076-0.048,0.123-0.077,0.144L5.922,1.75L5.861,1.747C5.762,1.744,5.684,1.663,5.684,1.564z M2.088,6.946   c-0.07,0.068-0.191,0.07-0.262,0.001C1.754,6.874,1.752,6.756,1.824,6.684c0.035-0.034,0.082-0.053,0.133-0.053   c0.01,0,0.019,0,0.027,0.001l0.063,0.009l0.045,0.048C2.16,6.762,2.158,6.875,2.088,6.946z M4.316,8.436   c0,0.103-0.084,0.187-0.186,0.187C4.029,8.621,3.945,8.538,3.945,8.437c0-0.072,0.043-0.119,0.078-0.146l0.052-0.04l0.063,0.002   C4.238,8.257,4.316,8.337,4.316,8.436z M9.023,5.328c-0.178,0-0.322-0.139-0.329-0.316L8.691,4.927L8.48,4.899   C8.446,4.898,8.411,4.896,8.377,4.893c-0.059-0.004-0.119,0.002-0.203-0.01L8.033,4.884c-0.058,0-0.112,0.001-0.177,0.01h-0.1   v0.101c0,0.289-0.046,0.575-0.135,0.853l-0.04,0.122l0.129,0.008c0.03,0.002,0.061,0.002,0.093,0.003l0.07,0.001   c0.087-0.001,0.172-0.009,0.25-0.018c-0.076,0.026-0.158,0.051-0.238,0.07L7.818,6.049C7.771,6.06,7.725,6.071,7.681,6.075   C7.658,6.077,7.636,6.08,7.613,6.084L7.526,6.096L7.504,6.146C7.434,6.301,7.346,6.454,7.242,6.6L7.201,6.656L7.24,6.714   C7.259,6.74,7.278,6.766,7.299,6.791c0.043,0.052,0.08,0.112,0.117,0.172c0.021,0.032,0.04,0.064,0.061,0.096   c0.038,0.06,0.071,0.122,0.104,0.183c0.018,0.033,0.035,0.066,0.049,0.09l0.093,0.201l0.074-0.012   C7.9,7.507,8.004,7.539,8.077,7.611c0.062,0.063,0.096,0.146,0.096,0.233s-0.034,0.17-0.096,0.232C7.951,8.2,7.735,8.2,7.611,8.077   C7.486,7.951,7.483,7.751,7.605,7.621L7.66,7.555L7.532,7.391C7.509,7.365,7.486,7.339,7.463,7.312   C7.42,7.261,7.376,7.21,7.326,7.161C7.304,7.139,7.281,7.116,7.259,7.094C7.208,7.043,7.157,6.992,7.09,6.939L7.019,6.881   l-0.07,0.068c-0.202,0.204-0.436,0.373-0.69,0.503L6.145,7.509l0.082,0.097c0.021,0.026,0.046,0.051,0.07,0.076l0.041,0.044   c0.062,0.059,0.126,0.113,0.188,0.162C6.448,7.851,6.374,7.811,6.309,7.771L6.252,7.735c-0.04-0.025-0.081-0.05-0.118-0.081   l-0.12-0.093l-0.052,0.02C5.796,7.643,5.625,7.688,5.454,7.717L5.381,7.729L5.367,7.832c-0.003,0.02-0.006,0.039-0.008,0.06   C5.353,7.961,5.336,8.03,5.319,8.101C5.311,8.137,5.303,8.172,5.296,8.207C5.281,8.275,5.26,8.343,5.24,8.408   c-0.012,0.036-0.023,0.072-0.03,0.1C5.192,8.556,5.176,8.602,5.16,8.646l-0.025,0.07l0.061,0.044   C5.279,8.821,5.328,8.92,5.328,9.022C5.328,9.203,5.18,9.351,5,9.352C4.819,9.351,4.672,9.204,4.672,9.023   c0-0.178,0.139-0.322,0.316-0.329L5.07,8.691L5.1,8.48c0.002-0.034,0.005-0.068,0.008-0.104c0.006-0.066,0.011-0.134,0.01-0.205   C5.116,8.138,5.116,8.104,5.116,8.069c0.001-0.069,0-0.138-0.011-0.226L5.094,7.757H5.006c-0.289,0-0.575-0.046-0.852-0.135   l-0.123-0.04L4.023,7.711c-0.002,0.03-0.002,0.061-0.003,0.093L4.02,7.874c0.001,0.077,0.008,0.16,0.019,0.251   C4.008,8.04,3.983,7.959,3.967,7.887L3.949,7.812c-0.01-0.045-0.021-0.089-0.024-0.131C3.923,7.657,3.92,7.635,3.916,7.613   L3.904,7.526L3.854,7.504C3.697,7.433,3.545,7.344,3.4,7.242L3.344,7.201L3.287,7.24C3.26,7.259,3.234,7.278,3.209,7.3   C3.158,7.342,3.1,7.378,3.041,7.414c-0.033,0.021-0.067,0.041-0.1,0.063C2.883,7.515,2.819,7.548,2.758,7.58   C2.725,7.598,2.692,7.615,2.669,7.629C2.623,7.649,2.578,7.67,2.535,7.691L2.469,7.723l0.011,0.073   C2.495,7.9,2.461,8.003,2.387,8.078c-0.123,0.121-0.34,0.121-0.463-0.001C1.795,7.948,1.795,7.74,1.922,7.612   c0.121-0.121,0.332-0.124,0.457-0.007l0.063,0.059l0.067-0.053c0.03-0.024,0.062-0.048,0.104-0.08   C2.639,7.506,2.668,7.48,2.697,7.456c0.048-0.041,0.096-0.083,0.143-0.13c0.021-0.022,0.044-0.045,0.066-0.067   c0.051-0.051,0.102-0.102,0.139-0.15l0.039-0.052L3.08,6.958L3.04,6.938c-0.198-0.201-0.364-0.43-0.492-0.681L2.49,6.146   L2.395,6.227C2.366,6.25,2.338,6.277,2.311,6.304L2.275,6.338C2.217,6.398,2.162,6.463,2.113,6.522   C2.149,6.449,2.189,6.374,2.229,6.31l0.037-0.058c0.025-0.041,0.051-0.082,0.08-0.118C2.36,6.115,2.375,6.096,2.389,6.077   l0.048-0.064L2.418,5.962C2.357,5.795,2.313,5.624,2.283,5.453L2.271,5.381L2.107,5.359c-0.07-0.008-0.141-0.023-0.213-0.041   C1.861,5.311,1.827,5.303,1.793,5.296C1.723,5.28,1.652,5.258,1.585,5.237L1.283,5.134L1.239,5.195   C1.18,5.278,1.082,5.328,0.978,5.328C0.797,5.328,0.648,5.181,0.648,5s0.148-0.328,0.329-0.328c0.177,0,0.321,0.139,0.327,0.316   l0.004,0.084L1.521,5.1c0.032,0.002,0.065,0.004,0.099,0.008c0.063,0.004,0.131,0.006,0.208,0.01l0.14-0.001   c0.057,0,0.113-0.001,0.164-0.009L2.245,5.09L2.244,5.005C2.242,4.723,2.287,4.438,2.379,4.153l0.039-0.122L2.289,4.023   c-0.032-0.002-0.065-0.002-0.1-0.003L2.127,4.02C2.04,4.021,1.956,4.028,1.878,4.037c0.079-0.027,0.16-0.053,0.235-0.07   l0.068-0.016C2.229,3.94,2.275,3.93,2.319,3.925C2.347,3.922,2.373,3.918,2.42,3.912l0.053-0.008l0.023-0.05   C2.571,3.691,2.66,3.539,2.759,3.401l0.042-0.059L2.759,3.284c-0.02-0.027-0.038-0.053-0.058-0.075   C2.658,3.156,2.62,3.096,2.582,3.035c-0.02-0.031-0.039-0.063-0.059-0.093C2.484,2.88,2.45,2.815,2.417,2.753l-0.14-0.285   L2.204,2.479C2.102,2.494,1.996,2.461,1.922,2.388C1.795,2.26,1.795,2.051,1.924,1.923c0.123-0.124,0.34-0.124,0.465,0   c0.125,0.125,0.128,0.326,0.006,0.456L2.338,2.443L2.469,2.61C2.49,2.634,2.512,2.659,2.533,2.685   c0.045,0.052,0.09,0.104,0.141,0.154c0.023,0.022,0.047,0.046,0.069,0.068c0.05,0.051,0.1,0.101,0.165,0.151l0.074,0.061   l0.068-0.068c0.205-0.204,0.438-0.374,0.693-0.504l0.115-0.059L3.773,2.391c-0.025-0.027-0.053-0.055-0.08-0.082L3.662,2.276   C3.605,2.22,3.541,2.164,3.477,2.113c0.076,0.036,0.15,0.076,0.214,0.115l0.06,0.038c0.039,0.025,0.078,0.049,0.118,0.083   l0.118,0.089l0.053-0.02c0.166-0.062,0.338-0.107,0.507-0.136l0.073-0.012L4.633,2.17c0.002-0.02,0.006-0.041,0.008-0.062   C4.647,2.04,4.664,1.971,4.68,1.9c0.009-0.036,0.018-0.072,0.025-0.108C4.719,1.723,4.74,1.655,4.761,1.589   C4.771,1.554,4.783,1.52,4.79,1.493l0.075-0.208L4.806,1.24C4.721,1.177,4.672,1.082,4.672,0.978C4.672,0.797,4.82,0.649,5,0.649   c0.182,0,0.328,0.147,0.328,0.328c0,0.177-0.14,0.321-0.317,0.328L4.926,1.308L4.9,1.52C4.898,1.552,4.896,1.585,4.893,1.619   c-0.005,0.068-0.011,0.137-0.01,0.208c0.002,0.033,0.002,0.065,0.001,0.098C4.883,1.997,4.883,2.066,4.895,2.156l0.012,0.088h0.088   c0.287,0,0.574,0.045,0.853,0.135l0.122,0.04l0.008-0.129c0.002-0.035,0.003-0.071,0.003-0.107V2.127   C5.979,2.045,5.972,1.96,5.962,1.873c0.022,0.063,0.05,0.148,0.071,0.242l0.016,0.067C6.06,2.229,6.071,2.275,6.075,2.32   C6.077,2.342,6.08,2.363,6.084,2.385l0.012,0.088l0.051,0.023C6.302,2.567,6.454,2.655,6.6,2.759l0.06,0.043L6.74,2.74   c0.019-0.014,0.036-0.027,0.051-0.04c0.052-0.042,0.112-0.08,0.172-0.117c0.032-0.02,0.064-0.041,0.096-0.061   c0.061-0.039,0.125-0.073,0.187-0.105l0.288-0.141L7.521,2.203c-0.017-0.103,0.018-0.207,0.09-0.28   c0.125-0.125,0.341-0.124,0.466,0c0.128,0.128,0.128,0.337,0,0.465c-0.12,0.12-0.331,0.123-0.455,0.007L7.561,2.338L7.39,2.469   C7.365,2.491,7.339,2.514,7.313,2.536C7.262,2.579,7.21,2.624,7.161,2.673L7.097,2.738C7.044,2.791,6.993,2.842,6.939,2.911   L6.891,2.968l0.042,0.063l0.017,0.02c0.203,0.203,0.373,0.436,0.504,0.693l0.059,0.115l0.097-0.086   c0.021-0.02,0.043-0.041,0.064-0.062l0.053-0.05c0.058-0.061,0.112-0.125,0.161-0.185C7.85,3.553,7.811,3.627,7.772,3.689   C7.758,3.712,7.743,3.734,7.729,3.758C7.706,3.795,7.683,3.832,7.655,3.865c-0.016,0.02-0.03,0.039-0.044,0.058l-0.05,0.065   l0.02,0.051c0.061,0.164,0.106,0.336,0.136,0.508l0.012,0.071l0.072,0.011c0.031,0.004,0.06,0.008,0.092,0.012   c0.07,0.007,0.142,0.023,0.213,0.041l0.102,0.022C8.276,4.719,8.345,4.74,8.411,4.762C8.446,4.771,8.48,4.783,8.508,4.79   l0.206,0.076l0.045-0.061c0.063-0.085,0.159-0.134,0.266-0.134c0.18,0,0.327,0.146,0.327,0.328S9.204,5.328,9.023,5.328z"></path><circle cx="5" cy="5" r="2.156"></circle></g></svg>